<?xml version="1.0" standalone="no"?>
 <!DOCTYPE svg PUBLIC "-//W3C//DTD SVG 1.1//EN" 
 "http://www.w3.org/Graphics/SVG/1.1/DTD/svg11.dtd"> 
<svg
  xmlns:svg="http://www.w3.org/2000/svg"
  xmlns="http://www.w3.org/2000/svg"
  xmlns:xlink="http://www.w3.org/1999/xlink"
  version="1.1"
  width="29.700220cm" height="21.000720cm" viewBox="0 0 116930 82680">
<title>SVG Picture created as Controller_Board.svg date 2022/06/25 01:09:35 </title>
  <desc>Picture generated by Eeschema-SVG </desc>
<g style="fill:#000000; fill-opacity:1.000000;stroke:#000000; stroke-opacity:1.000000;
stroke-linecap:round; stroke-linejoin:round;"
 transform="translate(0 0) scale(1 1)">
</g>
<g style="fill:#840000; fill-opacity:0.0; 
stroke:#840000; stroke-width:0.000000; stroke-opacity:1; 
stroke-linecap:round; stroke-linejoin:round;">
</g>
<g style="fill:#840000; fill-opacity:0.0; 
stroke:#840000; stroke-width:60.000000; stroke-opacity:1; 
stroke-linecap:round; stroke-linejoin:round;">
<rect x="69685.905512" y="65357.165354" width="42519.685039" height="12598.425197" rx="0.000000" />
<rect x="3937.007874" y="3937.007874" width="109055.984252" height="74805.984252" rx="0.000000" />
<rect x="4724.409449" y="4724.409449" width="107481.181102" height="73231.181102" rx="0.000000" />
<path d="M23622 4724
L23622 3937
" />
<path d="M43307 4724
L43307 3937
" />
<path d="M62992 4724
L62992 3937
" />
<path d="M82677 4724
L82677 3937
" />
<path d="M102362 4724
L102362 3937
" />
<text x="13779.527559" y="4586.614173"
textLength="549.960630" font-size="682.401575" lengthAdjust="spacingAndGlyphs"
text-anchor="start" opacity="0">1</text>
<g class="stroked-text"><desc>1</desc>
<path d="M14199 4562
L13907 4562
" />
<path d="M14053 4562
L14053 4050
L14004 4123
L13955 4172
L13907 4196
" />
</g><text x="33464.566929" y="4586.614173"
textLength="547.440945" font-size="682.401575" lengthAdjust="spacingAndGlyphs"
text-anchor="start" opacity="0">2</text>
<g class="stroked-text"><desc>2</desc>
<path d="M33592 4099
L33616 4074
L33665 4050
L33787 4050
L33835 4074
L33860 4099
L33884 4147
L33884 4196
L33860 4269
L33567 4562
L33884 4562
" />
</g><text x="53149.606299" y="4586.614173"
textLength="547.440945" font-size="682.401575" lengthAdjust="spacingAndGlyphs"
text-anchor="start" opacity="0">3</text>
<g class="stroked-text"><desc>3</desc>
<path d="M53252 4050
L53569 4050
L53398 4245
L53472 4245
L53520 4269
L53545 4294
L53569 4342
L53569 4464
L53545 4513
L53520 4537
L53472 4562
L53325 4562
L53277 4537
L53252 4513
" />
</g><text x="72834.645669" y="4586.614173"
textLength="547.440945" font-size="682.401575" lengthAdjust="spacingAndGlyphs"
text-anchor="start" opacity="0">4</text>
<g class="stroked-text"><desc>4</desc>
<path d="M73205 4221
L73205 4562
" />
<path d="M73083 4026
L72962 4391
L73278 4391
" />
</g><text x="92519.685039" y="4586.614173"
textLength="547.440945" font-size="682.401575" lengthAdjust="spacingAndGlyphs"
text-anchor="start" opacity="0">5</text>
<g class="stroked-text"><desc>5</desc>
<path d="M92915 4050
L92671 4050
L92647 4294
L92671 4269
L92720 4245
L92842 4245
L92890 4269
L92915 4294
L92939 4342
L92939 4464
L92915 4513
L92890 4537
L92842 4562
L92720 4562
L92671 4537
L92647 4513
" />
</g><text x="112204.724409" y="4586.614173"
textLength="547.440945" font-size="682.401575" lengthAdjust="spacingAndGlyphs"
text-anchor="start" opacity="0">6</text>
<g class="stroked-text"><desc>6</desc>
<path d="M112575 4050
L112478 4050
L112429 4074
L112405 4099
L112356 4172
L112332 4269
L112332 4464
L112356 4513
L112380 4537
L112429 4562
L112527 4562
L112575 4537
L112600 4513
L112624 4464
L112624 4342
L112600 4294
L112575 4269
L112527 4245
L112429 4245
L112380 4269
L112356 4294
L112332 4342
" />
</g><path d="M23622 77955
L23622 78742
" />
<path d="M43307 77955
L43307 78742
" />
<path d="M62992 77955
L62992 78742
" />
<path d="M82677 77955
L82677 78742
" />
<path d="M102362 77955
L102362 78742
" />
<text x="13779.527559" y="78605.196850"
textLength="547.440945" font-size="682.401575" lengthAdjust="spacingAndGlyphs"
text-anchor="start" opacity="0">1</text>
<g class="stroked-text"><desc>1</desc>
<path d="M14199 78580
L13907 78580
" />
<path d="M14053 78580
L14053 78068
L14004 78142
L13955 78190
L13907 78215
" />
</g><text x="33464.566929" y="78605.196850"
textLength="547.440945" font-size="682.401575" lengthAdjust="spacingAndGlyphs"
text-anchor="start" opacity="0">2</text>
<g class="stroked-text"><desc>2</desc>
<path d="M33592 78117
L33616 78093
L33665 78068
L33787 78068
L33835 78093
L33860 78117
L33884 78166
L33884 78215
L33860 78288
L33567 78580
L33884 78580
" />
</g><text x="53149.606299" y="78605.196850"
textLength="547.440945" font-size="682.401575" lengthAdjust="spacingAndGlyphs"
text-anchor="start" opacity="0">3</text>
<g class="stroked-text"><desc>3</desc>
<path d="M53252 78068
L53569 78068
L53398 78263
L53472 78263
L53520 78288
L53545 78312
L53569 78361
L53569 78483
L53545 78532
L53520 78556
L53472 78580
L53325 78580
L53277 78556
L53252 78532
" />
</g><text x="72834.645669" y="78605.196850"
textLength="547.440945" font-size="682.401575" lengthAdjust="spacingAndGlyphs"
text-anchor="start" opacity="0">4</text>
<g class="stroked-text"><desc>4</desc>
<path d="M73205 78239
L73205 78580
" />
<path d="M73083 78044
L72962 78410
L73278 78410
" />
</g><text x="92519.685039" y="78605.196850"
textLength="547.440945" font-size="682.401575" lengthAdjust="spacingAndGlyphs"
text-anchor="start" opacity="0">5</text>
<g class="stroked-text"><desc>5</desc>
<path d="M92915 78068
L92671 78068
L92647 78312
L92671 78288
L92720 78263
L92842 78263
L92890 78288
L92915 78312
L92939 78361
L92939 78483
L92915 78532
L92890 78556
L92842 78580
L92720 78580
L92671 78556
L92647 78532
" />
</g><text x="112204.724409" y="78605.196850"
textLength="547.440945" font-size="682.401575" lengthAdjust="spacingAndGlyphs"
text-anchor="start" opacity="0">6</text>
<g class="stroked-text"><desc>6</desc>
<path d="M112575 78068
L112478 78068
L112429 78093
L112405 78117
L112356 78190
L112332 78288
L112332 78483
L112356 78532
L112380 78556
L112429 78580
L112527 78580
L112575 78556
L112600 78532
L112624 78483
L112624 78361
L112600 78312
L112575 78288
L112527 78263
L112429 78263
L112380 78288
L112356 78312
L112332 78361
" />
</g><path d="M3937 23622
L4724 23622
" />
<path d="M3937 43307
L4724 43307
" />
<path d="M3937 62992
L4724 62992
" />
<text x="4330.708661" y="14035.433071"
textLength="498.700787" font-size="682.401575" lengthAdjust="spacingAndGlyphs"
text-anchor="middle" opacity="0">A</text>
<g class="stroked-text"><desc>A</desc>
<path d="M4208 13864
L4452 13864
" />
<path d="M4160 14011
L4330 13499
L4501 14011
" />
</g><text x="4330.708661" y="33720.472441"
textLength="571.811024" font-size="682.401575" lengthAdjust="spacingAndGlyphs"
text-anchor="middle" opacity="0">B</text>
<g class="stroked-text"><desc>B</desc>
<path d="M4367 33427
L4440 33452
L4464 33476
L4489 33525
L4489 33598
L4464 33647
L4440 33671
L4391 33696
L4196 33696
L4196 33184
L4367 33184
L4415 33208
L4440 33233
L4464 33281
L4464 33330
L4440 33379
L4415 33403
L4367 33427
L4196 33427
" />
</g><text x="4330.708661" y="53405.511811"
textLength="571.811024" font-size="682.401575" lengthAdjust="spacingAndGlyphs"
text-anchor="middle" opacity="0">C</text>
<g class="stroked-text"><desc>C</desc>
<path d="M4489 53332
L4464 53356
L4391 53381
L4342 53381
L4269 53356
L4221 53307
L4196 53259
L4172 53161
L4172 53088
L4196 52991
L4221 52942
L4269 52893
L4342 52869
L4391 52869
L4464 52893
L4489 52918
" />
</g><text x="4330.708661" y="73090.551181"
textLength="571.811024" font-size="682.401575" lengthAdjust="spacingAndGlyphs"
text-anchor="middle" opacity="0">D</text>
<g class="stroked-text"><desc>D</desc>
<path d="M4196 73066
L4196 72554
L4318 72554
L4391 72578
L4440 72627
L4464 72676
L4489 72773
L4489 72846
L4464 72944
L4440 72993
L4391 73041
L4318 73066
L4196 73066
" />
</g><path d="M112992 23622
L112205 23622
" />
<path d="M112992 43307
L112205 43307
" />
<path d="M112992 62992
L112205 62992
" />
<text x="112599.291339" y="14035.433071"
textLength="498.700787" font-size="682.401575" lengthAdjust="spacingAndGlyphs"
text-anchor="middle" opacity="0">A</text>
<g class="stroked-text"><desc>A</desc>
<path d="M112477 13864
L112721 13864
" />
<path d="M112428 14011
L112599 13499
L112769 14011
" />
</g><text x="112599.291339" y="33720.472441"
textLength="571.811024" font-size="682.401575" lengthAdjust="spacingAndGlyphs"
text-anchor="middle" opacity="0">B</text>
<g class="stroked-text"><desc>B</desc>
<path d="M112635 33427
L112708 33452
L112733 33476
L112757 33525
L112757 33598
L112733 33647
L112708 33671
L112660 33696
L112465 33696
L112465 33184
L112635 33184
L112684 33208
L112708 33233
L112733 33281
L112733 33330
L112708 33379
L112684 33403
L112635 33427
L112465 33427
" />
</g><text x="112599.291339" y="53405.511811"
textLength="571.811024" font-size="682.401575" lengthAdjust="spacingAndGlyphs"
text-anchor="middle" opacity="0">C</text>
<g class="stroked-text"><desc>C</desc>
<path d="M112757 53332
L112733 53356
L112660 53381
L112611 53381
L112538 53356
L112489 53307
L112465 53259
L112440 53161
L112440 53088
L112465 52991
L112489 52942
L112538 52893
L112611 52869
L112660 52869
L112733 52893
L112757 52918
" />
</g><text x="112599.291339" y="73090.551181"
textLength="571.811024" font-size="682.401575" lengthAdjust="spacingAndGlyphs"
text-anchor="middle" opacity="0">D</text>
<g class="stroked-text"><desc>D</desc>
<path d="M112465 73066
L112465 72554
L112587 72554
L112660 72578
L112708 72627
L112733 72676
L112757 72773
L112757 72846
L112733 72944
L112708 72993
L112660 73041
L112587 73066
L112465 73066
" />
</g><text x="78741.023622" y="76321.732283"
textLength="8721.417323" font-size="787.401575" lengthAdjust="spacingAndGlyphs"
text-anchor="start" opacity="0">Date: 2022-06-21</text>
<g class="stroked-text"><desc>Date: 2022-06-21</desc>
<path d="M78911 76293
L78911 75703
L79052 75703
L79136 75731
L79192 75787
L79220 75843
L79249 75956
L79249 76040
L79220 76152
L79192 76209
L79136 76265
L79052 76293
L78911 76293
" />
<path d="M79755 76293
L79755 75984
L79727 75928
L79670 75899
L79558 75899
L79502 75928
" />
<path d="M79755 76265
L79699 76293
L79558 76293
L79502 76265
L79474 76209
L79474 76152
L79502 76096
L79558 76068
L79699 76068
L79755 76040
" />
<path d="M79952 75899
L80177 75899
" />
<path d="M80036 75703
L80036 76209
L80064 76265
L80120 76293
L80177 76293
" />
<path d="M80598 76265
L80542 76293
L80430 76293
L80373 76265
L80345 76209
L80345 75984
L80373 75928
L80430 75899
L80542 75899
L80598 75928
L80627 75984
L80627 76040
L80345 76096
" />
<path d="M80880 76237
L80908 76265
L80880 76293
L80852 76265
L80880 76237
L80880 76293
" />
<path d="M80880 75928
L80908 75956
L80880 75984
L80852 75956
L80880 75928
L80880 75984
" />
<path d="M81583 75759
L81611 75731
L81667 75703
L81808 75703
L81864 75731
L81892 75759
L81920 75815
L81920 75871
L81892 75956
L81555 76293
L81920 76293
" />
<path d="M82286 75703
L82342 75703
L82398 75731
L82426 75759
L82454 75815
L82483 75928
L82483 76068
L82454 76181
L82426 76237
L82398 76265
L82342 76293
L82286 76293
L82229 76265
L82201 76237
L82173 76181
L82145 76068
L82145 75928
L82173 75815
L82201 75759
L82229 75731
L82286 75703
" />
<path d="M82708 75759
L82736 75731
L82792 75703
L82932 75703
L82989 75731
L83017 75759
L83045 75815
L83045 75871
L83017 75956
L82679 76293
L83045 76293
" />
<path d="M83270 75759
L83298 75731
L83354 75703
L83495 75703
L83551 75731
L83579 75759
L83607 75815
L83607 75871
L83579 75956
L83242 76293
L83607 76293
" />
<path d="M83860 76068
L84310 76068
" />
<path d="M84704 75703
L84760 75703
L84817 75731
L84845 75759
L84873 75815
L84901 75928
L84901 76068
L84873 76181
L84845 76237
L84817 76265
L84760 76293
L84704 76293
L84648 76265
L84620 76237
L84592 76181
L84564 76068
L84564 75928
L84592 75815
L84620 75759
L84648 75731
L84704 75703
" />
<path d="M85407 75703
L85295 75703
L85238 75731
L85210 75759
L85154 75843
L85126 75956
L85126 76181
L85154 76237
L85182 76265
L85238 76293
L85351 76293
L85407 76265
L85435 76237
L85463 76181
L85463 76040
L85435 75984
L85407 75956
L85351 75928
L85238 75928
L85182 75956
L85154 75984
L85126 76040
" />
<path d="M85717 76068
L86166 76068
" />
<path d="M86420 75759
L86448 75731
L86504 75703
L86645 75703
L86701 75731
L86729 75759
L86757 75815
L86757 75871
L86729 75956
L86391 76293
L86757 76293
" />
<path d="M87319 76293
L86982 76293
" />
<path d="M87151 76293
L87151 75703
L87094 75787
L87038 75843
L86982 75871
" />
</g><path d="M69685 76577
L112205 76577
" />
<text x="70079.606299" y="77424.094488"
textLength="26662.913386" font-size="787.401575" lengthAdjust="spacingAndGlyphs"
text-anchor="start" opacity="0">KiCad E.D.A.  kicad 6.0.6-3a73a75311~116~ubuntu20.04.1</text>
<g class="stroked-text"><desc>KiCad E.D.A.  kicad 6.0.6-3a73a75311~116~ubuntu20.04.1</desc>
<path d="M70250 77395
L70250 76805
" />
<path d="M70587 77395
L70334 77058
" />
<path d="M70587 76805
L70250 77142
" />
<path d="M70840 77395
L70840 77002
" />
<path d="M70840 76805
L70812 76833
L70840 76861
L70868 76833
L70840 76805
L70840 76861
" />
<path d="M71459 77339
L71431 77367
L71346 77395
L71290 77395
L71206 77367
L71150 77311
L71121 77255
L71093 77142
L71093 77058
L71121 76946
L71150 76889
L71206 76833
L71290 76805
L71346 76805
L71431 76833
L71459 76861
" />
<path d="M71965 77395
L71965 77086
L71937 77030
L71881 77002
L71768 77002
L71712 77030
" />
<path d="M71965 77367
L71909 77395
L71768 77395
L71712 77367
L71684 77311
L71684 77255
L71712 77199
L71768 77170
L71909 77170
L71965 77142
" />
<path d="M72499 77395
L72499 76805
" />
<path d="M72499 77367
L72443 77395
L72331 77395
L72274 77367
L72246 77339
L72218 77283
L72218 77114
L72246 77058
L72274 77030
L72331 77002
L72443 77002
L72499 77030
" />
<path d="M73231 77086
L73427 77086
" />
<path d="M73512 77395
L73231 77395
L73231 76805
L73512 76805
" />
<path d="M73765 77339
L73793 77367
L73765 77395
L73737 77367
L73765 77339
L73765 77395
" />
<path d="M74046 77395
L74046 76805
L74187 76805
L74271 76833
L74327 76889
L74355 76946
L74384 77058
L74384 77142
L74355 77255
L74327 77311
L74271 77367
L74187 77395
L74046 77395
" />
<path d="M74637 77339
L74665 77367
L74637 77395
L74609 77367
L74637 77339
L74637 77395
" />
<path d="M74890 77227
L75171 77227
" />
<path d="M74834 77395
L75030 76805
L75227 77395
" />
<path d="M75424 77339
L75452 77367
L75424 77395
L75396 77367
L75424 77339
L75424 77395
" />
<path d="M76605 77395
L76605 76805
" />
<path d="M76661 77170
L76830 77395
" />
<path d="M76830 77002
L76605 77227
" />
<path d="M77083 77395
L77083 77002
" />
<path d="M77083 76805
L77055 76833
L77083 76861
L77111 76833
L77083 76805
L77083 76861
" />
<path d="M77618 77367
L77561 77395
L77449 77395
L77393 77367
L77364 77339
L77336 77283
L77336 77114
L77364 77058
L77393 77030
L77449 77002
L77561 77002
L77618 77030
" />
<path d="M78124 77395
L78124 77086
L78096 77030
L78039 77002
L77927 77002
L77871 77030
" />
<path d="M78124 77367
L78067 77395
L77927 77395
L77871 77367
L77842 77311
L77842 77255
L77871 77199
L77927 77170
L78067 77170
L78124 77142
" />
<path d="M78658 77395
L78658 76805
" />
<path d="M78658 77367
L78602 77395
L78489 77395
L78433 77367
L78405 77339
L78377 77283
L78377 77114
L78405 77058
L78433 77030
L78489 77002
L78602 77002
L78658 77030
" />
<path d="M79642 76805
L79530 76805
L79474 76833
L79445 76861
L79389 76946
L79361 77058
L79361 77283
L79389 77339
L79417 77367
L79474 77395
L79586 77395
L79642 77367
L79670 77339
L79699 77283
L79699 77142
L79670 77086
L79642 77058
L79586 77030
L79474 77030
L79417 77058
L79389 77086
L79361 77142
" />
<path d="M79952 77339
L79980 77367
L79952 77395
L79923 77367
L79952 77339
L79952 77395
" />
<path d="M80345 76805
L80402 76805
L80458 76833
L80486 76861
L80514 76917
L80542 77030
L80542 77170
L80514 77283
L80486 77339
L80458 77367
L80402 77395
L80345 77395
L80289 77367
L80261 77339
L80233 77283
L80205 77170
L80205 77030
L80233 76917
L80261 76861
L80289 76833
L80345 76805
" />
<path d="M80795 77339
L80823 77367
L80795 77395
L80767 77367
L80795 77339
L80795 77395
" />
<path d="M81330 76805
L81217 76805
L81161 76833
L81133 76861
L81076 76946
L81048 77058
L81048 77283
L81076 77339
L81105 77367
L81161 77395
L81273 77395
L81330 77367
L81358 77339
L81386 77283
L81386 77142
L81358 77086
L81330 77058
L81273 77030
L81161 77030
L81105 77058
L81076 77086
L81048 77142
" />
<path d="M81639 77170
L82089 77170
" />
<path d="M82314 76805
L82679 76805
L82483 77030
L82567 77030
L82623 77058
L82651 77086
L82679 77142
L82679 77283
L82651 77339
L82623 77367
L82567 77395
L82398 77395
L82342 77367
L82314 77339
" />
<path d="M83186 77395
L83186 77086
L83157 77030
L83101 77002
L82989 77002
L82932 77030
" />
<path d="M83186 77367
L83129 77395
L82989 77395
L82932 77367
L82904 77311
L82904 77255
L82932 77199
L82989 77170
L83129 77170
L83186 77142
" />
<path d="M83411 76805
L83804 76805
L83551 77395
" />
<path d="M83973 76805
L84339 76805
L84142 77030
L84226 77030
L84282 77058
L84310 77086
L84339 77142
L84339 77283
L84310 77339
L84282 77367
L84226 77395
L84057 77395
L84001 77367
L83973 77339
" />
<path d="M84845 77395
L84845 77086
L84817 77030
L84760 77002
L84648 77002
L84592 77030
" />
<path d="M84845 77367
L84789 77395
L84648 77395
L84592 77367
L84564 77311
L84564 77255
L84592 77199
L84648 77170
L84789 77170
L84845 77142
" />
<path d="M85070 76805
L85463 76805
L85210 77395
" />
<path d="M85970 76805
L85688 76805
L85660 77086
L85688 77058
L85745 77030
L85885 77030
L85941 77058
L85970 77086
L85998 77142
L85998 77283
L85970 77339
L85941 77367
L85885 77395
L85745 77395
L85688 77367
L85660 77339
" />
<path d="M86195 76805
L86560 76805
L86363 77030
L86448 77030
L86504 77058
L86532 77086
L86560 77142
L86560 77283
L86532 77339
L86504 77367
L86448 77395
L86279 77395
L86223 77367
L86195 77339
" />
<path d="M87123 77395
L86785 77395
" />
<path d="M86954 77395
L86954 76805
L86898 76889
L86841 76946
L86785 76974
" />
<path d="M87685 77395
L87348 77395
" />
<path d="M87516 77395
L87516 76805
L87460 76889
L87404 76946
L87348 76974
" />
<path d="M87854 77170
L87882 77142
L87938 77114
L88051 77170
L88107 77142
L88135 77114
" />
<path d="M88669 77395
L88332 77395
" />
<path d="M88501 77395
L88501 76805
L88444 76889
L88388 76946
L88332 76974
" />
<path d="M89232 77395
L88894 77395
" />
<path d="M89063 77395
L89063 76805
L89007 76889
L88950 76946
L88894 76974
" />
<path d="M89738 76805
L89625 76805
L89569 76833
L89541 76861
L89485 76946
L89457 77058
L89457 77283
L89485 77339
L89513 77367
L89569 77395
L89682 77395
L89738 77367
L89766 77339
L89794 77283
L89794 77142
L89766 77086
L89738 77058
L89682 77030
L89569 77030
L89513 77058
L89485 77086
L89457 77142
" />
<path d="M89963 77170
L89991 77142
L90047 77114
L90160 77170
L90216 77142
L90244 77114
" />
<path d="M90722 77002
L90722 77395
" />
<path d="M90469 77002
L90469 77311
L90497 77367
L90553 77395
L90638 77395
L90694 77367
L90722 77339
" />
<path d="M91003 77395
L91003 76805
" />
<path d="M91003 77030
L91060 77002
L91172 77002
L91228 77030
L91256 77058
L91285 77114
L91285 77283
L91256 77339
L91228 77367
L91172 77395
L91060 77395
L91003 77367
" />
<path d="M91791 77002
L91791 77395
" />
<path d="M91538 77002
L91538 77311
L91566 77367
L91622 77395
L91706 77395
L91763 77367
L91791 77339
" />
<path d="M92072 77002
L92072 77395
" />
<path d="M92072 77058
L92100 77030
L92156 77002
L92241 77002
L92297 77030
L92325 77086
L92325 77395
" />
<path d="M92522 77002
L92747 77002
" />
<path d="M92606 76805
L92606 77311
L92634 77367
L92691 77395
L92747 77395
" />
<path d="M93197 77002
L93197 77395
" />
<path d="M92944 77002
L92944 77311
L92972 77367
L93028 77395
L93112 77395
L93169 77367
L93197 77339
" />
<path d="M93450 76861
L93478 76833
L93534 76805
L93675 76805
L93731 76833
L93759 76861
L93787 76917
L93787 76974
L93759 77058
L93422 77395
L93787 77395
" />
<path d="M94153 76805
L94209 76805
L94265 76833
L94294 76861
L94322 76917
L94350 77030
L94350 77170
L94322 77283
L94294 77339
L94265 77367
L94209 77395
L94153 77395
L94097 77367
L94069 77339
L94040 77283
L94012 77170
L94012 77030
L94040 76917
L94069 76861
L94097 76833
L94153 76805
" />
<path d="M94603 77339
L94631 77367
L94603 77395
L94575 77367
L94603 77339
L94603 77395
" />
<path d="M94997 76805
L95053 76805
L95109 76833
L95137 76861
L95165 76917
L95193 77030
L95193 77170
L95165 77283
L95137 77339
L95109 77367
L95053 77395
L94997 77395
L94940 77367
L94912 77339
L94884 77283
L94856 77170
L94856 77030
L94884 76917
L94912 76861
L94940 76833
L94997 76805
" />
<path d="M95700 77002
L95700 77395
" />
<path d="M95559 76777
L95418 77199
L95784 77199
" />
<path d="M96009 77339
L96037 77367
L96009 77395
L95981 77367
L96009 77339
L96009 77395
" />
<path d="M96600 77395
L96262 77395
" />
<path d="M96431 77395
L96431 76805
L96375 76889
L96318 76946
L96262 76974
" />
</g><path d="M69685 75396
L112205 75396
" />
</g>
<g style="fill:#840000; fill-opacity:0.0; 
stroke:#840000; stroke-width:118.110236; stroke-opacity:1; 
stroke-linecap:round; stroke-linejoin:round;">
<text x="103544.173228" y="76321.732283"
textLength="4784.409449" font-size="787.401575" lengthAdjust="spacingAndGlyphs"
text-anchor="start" opacity="0">Rev: rev00</text>
<g class="stroked-text"><desc>Rev: rev00</desc>
<path d="M104098 76293
L103902 76012
" />
<path d="M103761 76293
L103761 75703
L103986 75703
L104042 75731
L104070 75759
L104098 75815
L104098 75899
L104070 75956
L104042 75984
L103986 76012
L103761 76012
" />
<path d="M104577 76265
L104520 76293
L104408 76293
L104352 76265
L104323 76209
L104323 75984
L104352 75928
L104408 75899
L104520 75899
L104577 75928
L104605 75984
L104605 76040
L104323 76096
" />
<path d="M104802 75899
L104942 76293
L105083 75899
" />
<path d="M105308 76237
L105336 76265
L105308 76293
L105280 76265
L105308 76237
L105308 76293
" />
<path d="M105308 75928
L105336 75956
L105308 75984
L105280 75956
L105308 75928
L105308 75984
" />
<path d="M106039 76293
L106039 75899
" />
<path d="M106039 76012
L106067 75956
L106095 75928
L106151 75899
L106208 75899
" />
<path d="M106629 76265
L106573 76293
L106461 76293
L106404 76265
L106376 76209
L106376 75984
L106404 75928
L106461 75899
L106573 75899
L106629 75928
L106658 75984
L106658 76040
L106376 76096
" />
<path d="M106854 75899
L106995 76293
L107136 75899
" />
<path d="M107473 75703
L107529 75703
L107586 75731
L107614 75759
L107642 75815
L107670 75928
L107670 76068
L107642 76181
L107614 76237
L107586 76265
L107529 76293
L107473 76293
L107417 76265
L107389 76237
L107361 76181
L107332 76068
L107332 75928
L107361 75815
L107389 75759
L107417 75731
L107473 75703
" />
<path d="M108035 75703
L108092 75703
L108148 75731
L108176 75759
L108204 75815
L108232 75928
L108232 76068
L108204 76181
L108176 76237
L108148 76265
L108092 76293
L108035 76293
L107979 76265
L107951 76237
L107923 76181
L107895 76068
L107895 75928
L107923 75815
L107951 75759
L107979 75731
L108035 75703
" />
</g></g>
<g style="fill:#840000; fill-opacity:0.0; 
stroke:#840000; stroke-width:60.000000; stroke-opacity:1; 
stroke-linecap:round; stroke-linejoin:round;">
<text x="70079.606299" y="76321.732283"
textLength="3781.220472" font-size="787.401575" lengthAdjust="spacingAndGlyphs"
text-anchor="start" opacity="0">Size: A4</text>
<g class="stroked-text"><desc>Size: A4</desc>
<path d="M70222 76265
L70306 76293
L70447 76293
L70503 76265
L70531 76237
L70559 76181
L70559 76124
L70531 76068
L70503 76040
L70447 76012
L70334 75984
L70278 75956
L70250 75928
L70222 75871
L70222 75815
L70250 75759
L70278 75731
L70334 75703
L70475 75703
L70559 75731
" />
<path d="M70812 76293
L70812 75899
" />
<path d="M70812 75703
L70784 75731
L70812 75759
L70840 75731
L70812 75703
L70812 75759
" />
<path d="M71037 75899
L71346 75899
L71037 76293
L71346 76293
" />
<path d="M71796 76265
L71740 76293
L71628 76293
L71571 76265
L71543 76209
L71543 75984
L71571 75928
L71628 75899
L71740 75899
L71796 75928
L71825 75984
L71825 76040
L71543 76096
" />
<path d="M72078 76237
L72106 76265
L72078 76293
L72049 76265
L72078 76237
L72078 76293
" />
<path d="M72078 75928
L72106 75956
L72078 75984
L72049 75956
L72078 75928
L72078 75984
" />
<path d="M72781 76124
L73062 76124
" />
<path d="M72724 76293
L72921 75703
L73118 76293
" />
<path d="M73568 75899
L73568 76293
" />
<path d="M73427 75674
L73287 76096
L73652 76096
" />
</g><text x="103544.173228" y="77424.094488"
textLength="3350.196850" font-size="787.401575" lengthAdjust="spacingAndGlyphs"
text-anchor="start" opacity="0">Id: 1/6</text>
<g class="stroked-text"><desc>Id: 1/6</desc>
<path d="M103714 77395
L103714 76805
" />
<path d="M104249 77395
L104249 76805
" />
<path d="M104249 77367
L104192 77395
L104080 77395
L104024 77367
L103995 77339
L103967 77283
L103967 77114
L103995 77058
L104024 77030
L104080 77002
L104192 77002
L104249 77030
" />
<path d="M104530 77339
L104558 77367
L104530 77395
L104502 77367
L104530 77339
L104530 77395
" />
<path d="M104530 77030
L104558 77058
L104530 77086
L104502 77058
L104530 77030
L104530 77086
" />
<path d="M105570 77395
L105233 77395
" />
<path d="M105402 77395
L105402 76805
L105345 76889
L105289 76946
L105233 76974
" />
<path d="M106245 76777
L105739 77536
" />
<path d="M106695 76805
L106583 76805
L106526 76833
L106498 76861
L106442 76946
L106414 77058
L106414 77283
L106442 77339
L106470 77367
L106526 77395
L106639 77395
L106695 77367
L106723 77339
L106751 77283
L106751 77142
L106723 77086
L106695 77058
L106639 77030
L106526 77030
L106470 77058
L106442 77086
L106414 77142
" />
</g><path d="M69685 73821
L112205 73821
" />
</g>
<g style="fill:#840000; fill-opacity:0.0; 
stroke:#840000; stroke-width:157.480315; stroke-opacity:1; 
stroke-linecap:round; stroke-linejoin:round;">
<text x="70079.606299" y="74924.094488"
textLength="16341.456693" font-size="1049.842520" lengthAdjust="spacingAndGlyphs"
text-anchor="start" opacity="0">Title: Traffic_Control_Board</text>
<g class="stroked-text"><desc>Title: Traffic_Control_Board</desc>
<path d="M70360 74099
L70810 74099
" />
<path d="M70486 74886
L70585 74099
" />
<path d="M70974 74886
L71039 74361
" />
<path d="M71072 74099
L71030 74136
L71063 74174
L71105 74136
L71072 74099
L71063 74174
" />
<path d="M71302 74361
L71602 74361
" />
<path d="M71447 74099
L71363 74774
L71391 74849
L71461 74886
L71536 74886
" />
<path d="M71911 74886
L71841 74849
L71812 74774
L71897 74099
" />
<path d="M72516 74849
L72436 74886
L72286 74886
L72216 74849
L72187 74774
L72225 74474
L72272 74399
L72352 74361
L72501 74361
L72572 74399
L72600 74474
L72591 74549
L72206 74624
" />
<path d="M72895 74811
L72928 74849
L72886 74886
L72853 74849
L72895 74811
L72886 74886
" />
<path d="M72947 74399
L72980 74436
L72937 74474
L72905 74436
L72947 74399
L72937 74474
" />
<path d="M73847 74099
L74297 74099
" />
<path d="M73973 74886
L74072 74099
" />
<path d="M74461 74886
L74526 74361
" />
<path d="M74507 74511
L74554 74436
L74597 74399
L74676 74361
L74751 74361
" />
<path d="M75285 74886
L75337 74474
L75309 74399
L75239 74361
L75089 74361
L75009 74399
" />
<path d="M75290 74849
L75211 74886
L75023 74886
L74953 74849
L74925 74774
L74934 74699
L74981 74624
L75061 74586
L75248 74586
L75328 74549
" />
<path d="M75614 74361
L75914 74361
" />
<path d="M75660 74886
L75745 74211
L75792 74136
L75871 74099
L75946 74099
" />
<path d="M76064 74361
L76363 74361
" />
<path d="M76110 74886
L76195 74211
L76242 74136
L76321 74099
L76396 74099
" />
<path d="M76560 74886
L76626 74361
" />
<path d="M76659 74099
L76617 74136
L76649 74174
L76692 74136
L76659 74099
L76649 74174
" />
<path d="M77277 74849
L77198 74886
L77048 74886
L76977 74849
L76945 74811
L76917 74736
L76945 74511
L76992 74436
L77034 74399
L77113 74361
L77263 74361
L77334 74399
" />
<path d="M77413 74961
L78013 74961
" />
<path d="M78669 74811
L78627 74849
L78510 74886
L78435 74886
L78327 74849
L78262 74774
L78234 74699
L78215 74549
L78229 74436
L78285 74286
L78332 74211
L78416 74136
L78534 74099
L78609 74099
L78716 74136
L78749 74174
" />
<path d="M79110 74886
L79040 74849
L79007 74811
L78979 74736
L79007 74511
L79054 74436
L79096 74399
L79176 74361
L79288 74361
L79358 74399
L79391 74436
L79419 74511
L79391 74736
L79344 74811
L79302 74849
L79222 74886
L79110 74886
" />
<path d="M79776 74361
L79710 74886
" />
<path d="M79766 74436
L79808 74399
L79888 74361
L80001 74361
L80071 74399
L80099 74474
L80047 74886
" />
<path d="M80375 74361
L80675 74361
" />
<path d="M80521 74099
L80436 74774
L80465 74849
L80535 74886
L80610 74886
" />
<path d="M80872 74886
L80938 74361
" />
<path d="M80919 74511
L80966 74436
L81008 74399
L81088 74361
L81163 74361
" />
<path d="M81472 74886
L81402 74849
L81369 74811
L81341 74736
L81369 74511
L81416 74436
L81458 74399
L81538 74361
L81650 74361
L81721 74399
L81753 74436
L81782 74511
L81753 74736
L81707 74811
L81664 74849
L81585 74886
L81472 74886
" />
<path d="M82185 74886
L82114 74849
L82086 74774
L82171 74099
" />
<path d="M82288 74961
L82888 74961
" />
<path d="M83399 74474
L83506 74511
L83539 74549
L83567 74624
L83553 74736
L83506 74811
L83464 74849
L83385 74886
L83085 74886
L83183 74099
L83445 74099
L83516 74136
L83549 74174
L83577 74249
L83567 74324
L83520 74399
L83478 74436
L83399 74474
L83136 74474
" />
<path d="M83984 74886
L83914 74849
L83881 74811
L83853 74736
L83881 74511
L83928 74436
L83970 74399
L84050 74361
L84163 74361
L84233 74399
L84266 74436
L84294 74511
L84266 74736
L84219 74811
L84177 74849
L84097 74886
L83984 74886
" />
<path d="M84922 74886
L84973 74474
L84945 74399
L84875 74361
L84725 74361
L84645 74399
" />
<path d="M84926 74849
L84847 74886
L84659 74886
L84589 74849
L84561 74774
L84570 74699
L84617 74624
L84697 74586
L84884 74586
L84964 74549
" />
<path d="M85297 74886
L85362 74361
" />
<path d="M85344 74511
L85390 74436
L85433 74399
L85512 74361
L85587 74361
" />
<path d="M86122 74886
L86220 74099
" />
<path d="M86126 74849
L86047 74886
L85897 74886
L85826 74849
L85794 74811
L85765 74736
L85794 74511
L85840 74436
L85883 74399
L85962 74361
L86112 74361
L86183 74399
" />
</g></g>
<g style="fill:#840000; fill-opacity:0.0; 
stroke:#840000; stroke-width:60.000000; stroke-opacity:1; 
stroke-linecap:round; stroke-linejoin:round;">
<text x="70079.606299" y="73408.346457"
textLength="14518.543307" font-size="787.401575" lengthAdjust="spacingAndGlyphs"
text-anchor="start" opacity="0">File: Controller_Board.kicad_sch</text>
<g class="stroked-text"><desc>File: Controller_Board.kicad_sch</desc>
<path d="M70447 73070
L70250 73070
" />
<path d="M70250 73380
L70250 72789
L70531 72789
" />
<path d="M70756 73380
L70756 72986
" />
<path d="M70756 72789
L70728 72817
L70756 72845
L70784 72817
L70756 72789
L70756 72845
" />
<path d="M71121 73380
L71065 73352
L71037 73295
L71037 72789
" />
<path d="M71571 73352
L71515 73380
L71403 73380
L71346 73352
L71318 73295
L71318 73070
L71346 73014
L71403 72986
L71515 72986
L71571 73014
L71600 73070
L71600 73127
L71318 73183
" />
<path d="M71853 73323
L71881 73352
L71853 73380
L71825 73352
L71853 73323
L71853 73380
" />
<path d="M71853 73014
L71881 73042
L71853 73070
L71825 73042
L71853 73014
L71853 73070
" />
<path d="M72921 73323
L72893 73352
L72809 73380
L72752 73380
L72668 73352
L72612 73295
L72584 73239
L72556 73127
L72556 73042
L72584 72930
L72612 72874
L72668 72817
L72752 72789
L72809 72789
L72893 72817
L72921 72845
" />
<path d="M73259 73380
L73202 73352
L73174 73323
L73146 73267
L73146 73098
L73174 73042
L73202 73014
L73259 72986
L73343 72986
L73399 73014
L73427 73042
L73456 73098
L73456 73267
L73427 73323
L73399 73352
L73343 73380
L73259 73380
" />
<path d="M73709 72986
L73709 73380
" />
<path d="M73709 73042
L73737 73014
L73793 72986
L73877 72986
L73934 73014
L73962 73070
L73962 73380
" />
<path d="M74159 72986
L74384 72986
" />
<path d="M74243 72789
L74243 73295
L74271 73352
L74327 73380
L74384 73380
" />
<path d="M74580 73380
L74580 72986
" />
<path d="M74580 73098
L74609 73042
L74637 73014
L74693 72986
L74749 72986
" />
<path d="M75030 73380
L74974 73352
L74946 73323
L74918 73267
L74918 73098
L74946 73042
L74974 73014
L75030 72986
L75115 72986
L75171 73014
L75199 73042
L75227 73098
L75227 73267
L75199 73323
L75171 73352
L75115 73380
L75030 73380
" />
<path d="M75565 73380
L75508 73352
L75480 73295
L75480 72789
" />
<path d="M75874 73380
L75818 73352
L75790 73295
L75790 72789
" />
<path d="M76324 73352
L76268 73380
L76155 73380
L76099 73352
L76071 73295
L76071 73070
L76099 73014
L76155 72986
L76268 72986
L76324 73014
L76352 73070
L76352 73127
L76071 73183
" />
<path d="M76605 73380
L76605 72986
" />
<path d="M76605 73098
L76633 73042
L76661 73014
L76718 72986
L76774 72986
" />
<path d="M76830 73436
L77280 73436
" />
<path d="M77618 73070
L77702 73098
L77730 73127
L77758 73183
L77758 73267
L77730 73323
L77702 73352
L77646 73380
L77421 73380
L77421 72789
L77618 72789
L77674 72817
L77702 72845
L77730 72902
L77730 72958
L77702 73014
L77674 73042
L77618 73070
L77421 73070
" />
<path d="M78096 73380
L78039 73352
L78011 73323
L77983 73267
L77983 73098
L78011 73042
L78039 73014
L78096 72986
L78180 72986
L78236 73014
L78264 73042
L78292 73098
L78292 73267
L78264 73323
L78236 73352
L78180 73380
L78096 73380
" />
<path d="M78799 73380
L78799 73070
L78771 73014
L78714 72986
L78602 72986
L78546 73014
" />
<path d="M78799 73352
L78742 73380
L78602 73380
L78546 73352
L78517 73295
L78517 73239
L78546 73183
L78602 73155
L78742 73155
L78799 73127
" />
<path d="M79080 73380
L79080 72986
" />
<path d="M79080 73098
L79108 73042
L79136 73014
L79192 72986
L79249 72986
" />
<path d="M79699 73380
L79699 72789
" />
<path d="M79699 73352
L79642 73380
L79530 73380
L79474 73352
L79445 73323
L79417 73267
L79417 73098
L79445 73042
L79474 73014
L79530 72986
L79642 72986
L79699 73014
" />
<path d="M79980 73323
L80008 73352
L79980 73380
L79952 73352
L79980 73323
L79980 73380
" />
<path d="M80261 73380
L80261 72789
" />
<path d="M80317 73155
L80486 73380
" />
<path d="M80486 72986
L80261 73211
" />
<path d="M80739 73380
L80739 72986
" />
<path d="M80739 72789
L80711 72817
L80739 72845
L80767 72817
L80739 72789
L80739 72845
" />
<path d="M81273 73352
L81217 73380
L81105 73380
L81048 73352
L81020 73323
L80992 73267
L80992 73098
L81020 73042
L81048 73014
L81105 72986
L81217 72986
L81273 73014
" />
<path d="M81780 73380
L81780 73070
L81751 73014
L81695 72986
L81583 72986
L81526 73014
" />
<path d="M81780 73352
L81723 73380
L81583 73380
L81526 73352
L81498 73295
L81498 73239
L81526 73183
L81583 73155
L81723 73155
L81780 73127
" />
<path d="M82314 73380
L82314 72789
" />
<path d="M82314 73352
L82258 73380
L82145 73380
L82089 73352
L82061 73323
L82033 73267
L82033 73098
L82061 73042
L82089 73014
L82145 72986
L82258 72986
L82314 73014
" />
<path d="M82454 73436
L82904 73436
" />
<path d="M83017 73352
L83073 73380
L83186 73380
L83242 73352
L83270 73295
L83270 73267
L83242 73211
L83186 73183
L83101 73183
L83045 73155
L83017 73098
L83017 73070
L83045 73014
L83101 72986
L83186 72986
L83242 73014
" />
<path d="M83776 73352
L83720 73380
L83607 73380
L83551 73352
L83523 73323
L83495 73267
L83495 73098
L83523 73042
L83551 73014
L83607 72986
L83720 72986
L83776 73014
" />
<path d="M84029 73380
L84029 72789
" />
<path d="M84282 73380
L84282 73070
L84254 73014
L84198 72986
L84114 72986
L84057 73014
L84029 73042
" />
</g><path d="M69685 71459
L112205 71459
" />
<text x="70079.606299" y="72345.354331"
textLength="3856.417323" font-size="787.401575" lengthAdjust="spacingAndGlyphs"
text-anchor="start" opacity="0">Sheet: /</text>
<g class="stroked-text"><desc>Sheet: /</desc>
<path d="M70222 72289
L70306 72317
L70447 72317
L70503 72289
L70531 72260
L70559 72204
L70559 72148
L70531 72092
L70503 72064
L70447 72035
L70334 72007
L70278 71979
L70250 71951
L70222 71895
L70222 71839
L70250 71782
L70278 71754
L70334 71726
L70475 71726
L70559 71754
" />
<path d="M70812 72317
L70812 71726
" />
<path d="M71065 72317
L71065 72007
L71037 71951
L70981 71923
L70897 71923
L70840 71951
L70812 71979
" />
<path d="M71571 72289
L71515 72317
L71403 72317
L71346 72289
L71318 72232
L71318 72007
L71346 71951
L71403 71923
L71515 71923
L71571 71951
L71600 72007
L71600 72064
L71318 72120
" />
<path d="M72078 72289
L72021 72317
L71909 72317
L71853 72289
L71825 72232
L71825 72007
L71853 71951
L71909 71923
L72021 71923
L72078 71951
L72106 72007
L72106 72064
L71825 72120
" />
<path d="M72274 71923
L72499 71923
" />
<path d="M72359 71726
L72359 72232
L72387 72289
L72443 72317
L72499 72317
" />
<path d="M72696 72260
L72724 72289
L72696 72317
L72668 72289
L72696 72260
L72696 72317
" />
<path d="M72696 71951
L72724 71979
L72696 72007
L72668 71979
L72696 71951
L72696 72007
" />
<path d="M73849 71698
L73343 72457
" />
</g></g>
<g style="fill:#840000; fill-opacity:0.0; 
stroke:#840000; stroke-width:118.110236; stroke-opacity:1; 
stroke-linecap:round; stroke-linejoin:round;">
<text x="70079.606299" y="71164.251969"
textLength="5768.661417" font-size="787.401575" lengthAdjust="spacingAndGlyphs"
text-anchor="start" opacity="0">EddiAcademy</text>
<g class="stroked-text"><desc>EddiAcademy</desc>
<path d="M70296 70826
L70493 70826
" />
<path d="M70578 71136
L70296 71136
L70296 70545
L70578 70545
" />
<path d="M71084 71136
L71084 70545
" />
<path d="M71084 71107
L71028 71136
L70915 71136
L70859 71107
L70831 71079
L70803 71023
L70803 70854
L70831 70798
L70859 70770
L70915 70742
L71028 70742
L71084 70770
" />
<path d="M71618 71136
L71618 70545
" />
<path d="M71618 71107
L71562 71136
L71449 71136
L71393 71107
L71365 71079
L71337 71023
L71337 70854
L71365 70798
L71393 70770
L71449 70742
L71562 70742
L71618 70770
" />
<path d="M71899 71136
L71899 70742
" />
<path d="M71899 70545
L71871 70573
L71899 70601
L71928 70573
L71899 70545
L71899 70601
" />
<path d="M72152 70967
L72434 70967
" />
<path d="M72096 71136
L72293 70545
L72490 71136
" />
<path d="M72940 71107
L72884 71136
L72771 71136
L72715 71107
L72687 71079
L72659 71023
L72659 70854
L72687 70798
L72715 70770
L72771 70742
L72884 70742
L72940 70770
" />
<path d="M73446 71136
L73446 70826
L73418 70770
L73362 70742
L73249 70742
L73193 70770
" />
<path d="M73446 71107
L73390 71136
L73249 71136
L73193 71107
L73165 71051
L73165 70995
L73193 70939
L73249 70911
L73390 70911
L73446 70883
" />
<path d="M73980 71136
L73980 70545
" />
<path d="M73980 71107
L73924 71136
L73812 71136
L73755 71107
L73727 71079
L73699 71023
L73699 70854
L73727 70798
L73755 70770
L73812 70742
L73924 70742
L73980 70770
" />
<path d="M74487 71107
L74430 71136
L74318 71136
L74262 71107
L74233 71051
L74233 70826
L74262 70770
L74318 70742
L74430 70742
L74487 70770
L74515 70826
L74515 70883
L74233 70939
" />
<path d="M74768 71136
L74768 70742
" />
<path d="M74768 70798
L74796 70770
L74852 70742
L74937 70742
L74993 70770
L75021 70826
L75021 71136
" />
<path d="M75021 70826
L75049 70770
L75105 70742
L75190 70742
L75246 70770
L75274 70826
L75274 71136
" />
<path d="M75499 70742
L75640 71136
" />
<path d="M75780 70742
L75640 71136
L75583 71276
L75555 71304
L75499 71332
" />
</g></g>
<g style="fill:#840000; fill-opacity:0.0; 
stroke:#840000; stroke-width:60.000000; stroke-opacity:1; 
stroke-linecap:round; stroke-linejoin:round;">
<text x="70079.606299" y="69983.149606"
textLength="153.543307" font-size="787.401575" lengthAdjust="spacingAndGlyphs"
text-anchor="start" opacity="0"></text>
<g class="stroked-text"><desc></desc>
</g><text x="70079.606299" y="68802.047244"
textLength="60.000000" font-size="787.401575" lengthAdjust="spacingAndGlyphs"
text-anchor="start" opacity="0"></text>
<g class="stroked-text"><desc></desc>
</g><text x="70079.606299" y="67620.944882"
textLength="60.000000" font-size="787.401575" lengthAdjust="spacingAndGlyphs"
text-anchor="start" opacity="0"></text>
<g class="stroked-text"><desc></desc>
</g><text x="70079.606299" y="66439.842520"
textLength="60.000000" font-size="787.401575" lengthAdjust="spacingAndGlyphs"
text-anchor="start" opacity="0"></text>
<g class="stroked-text"><desc></desc>
</g><path d="M77559 75396
L77559 76577
" />
<path d="M102756 75396
L102756 77955
" />
</g>
<g style="fill:#FFFFFF; fill-opacity:0.0; 
stroke:#FFFFFF; stroke-width:60.000000; stroke-opacity:1; 
stroke-linecap:round; stroke-linejoin:round;">
</g>
<g style="fill:#FFFFFF; fill-opacity:1.0; 
stroke:#FFFFFF; stroke-width:0.039370; stroke-opacity:1; 
stroke-linecap:round; stroke-linejoin:round;">
<rect x="8500.000000" y="8000.000000" width="15500.000000" height="12500.000000" rx="0.000000" />
</g>
<g style="fill:#840000; fill-opacity:1.0; 
stroke:#840000; stroke-width:0.039370; stroke-opacity:1; 
stroke-linecap:round; stroke-linejoin:round;">
</g>
<g style="fill:#840000; fill-opacity:0.0; 
stroke:#840000; stroke-width:60.000000; stroke-opacity:1; 
stroke-linecap:round; stroke-linejoin:round;">
<rect x="8500.000000" y="8000.000000" width="15500.000000" height="12500.000000" rx="0.000000" />
</g>
<g style="fill:#006464; fill-opacity:0.0; 
stroke:#006464; stroke-width:60.000000; stroke-opacity:1; 
stroke-linecap:round; stroke-linejoin:round;">
<text x="12031.259843" y="7567.322835"
textLength="7060.000000" font-size="666.653543" lengthAdjust="spacingAndGlyphs"
text-anchor="middle" opacity="0">TMS570_Connector</text>
<g class="stroked-text"><desc>TMS570_Connector</desc>
<path d="M8578 7043
L8864 7043
" />
<path d="M8721 7543
L8721 7043
" />
<path d="M9031 7543
L9031 7043
L9197 7400
L9364 7043
L9364 7543
" />
<path d="M9578 7519
L9650 7543
L9769 7543
L9816 7519
L9840 7495
L9864 7448
L9864 7400
L9840 7353
L9816 7329
L9769 7305
L9674 7281
L9626 7257
L9602 7233
L9578 7186
L9578 7138
L9602 7091
L9626 7067
L9674 7043
L9793 7043
L9864 7067
" />
<path d="M10316 7043
L10078 7043
L10055 7281
L10078 7257
L10126 7233
L10245 7233
L10293 7257
L10316 7281
L10340 7329
L10340 7448
L10316 7495
L10293 7519
L10245 7543
L10126 7543
L10078 7519
L10055 7495
" />
<path d="M10507 7043
L10840 7043
L10626 7543
" />
<path d="M11126 7043
L11174 7043
L11221 7067
L11245 7091
L11269 7138
L11293 7233
L11293 7353
L11269 7448
L11245 7495
L11221 7519
L11174 7543
L11126 7543
L11078 7519
L11055 7495
L11031 7448
L11007 7353
L11007 7233
L11031 7138
L11055 7091
L11078 7067
L11126 7043
" />
<path d="M11388 7591
L11769 7591
" />
<path d="M12174 7495
L12150 7519
L12078 7543
L12031 7543
L11959 7519
L11912 7472
L11888 7424
L11864 7329
L11864 7257
L11888 7162
L11912 7114
L11959 7067
L12031 7043
L12078 7043
L12150 7067
L12174 7091
" />
<path d="M12459 7543
L12412 7519
L12388 7495
L12364 7448
L12364 7305
L12388 7257
L12412 7233
L12459 7210
L12531 7210
L12578 7233
L12602 7257
L12626 7305
L12626 7448
L12602 7495
L12578 7519
L12531 7543
L12459 7543
" />
<path d="M12840 7210
L12840 7543
" />
<path d="M12840 7257
L12864 7233
L12912 7210
L12983 7210
L13031 7233
L13055 7281
L13055 7543
" />
<path d="M13293 7210
L13293 7543
" />
<path d="M13293 7257
L13316 7233
L13364 7210
L13435 7210
L13483 7233
L13507 7281
L13507 7543
" />
<path d="M13935 7519
L13888 7543
L13793 7543
L13745 7519
L13721 7472
L13721 7281
L13745 7233
L13793 7210
L13888 7210
L13935 7233
L13959 7281
L13959 7329
L13721 7376
" />
<path d="M14388 7519
L14340 7543
L14245 7543
L14197 7519
L14174 7495
L14150 7448
L14150 7305
L14174 7257
L14197 7233
L14245 7210
L14340 7210
L14388 7233
" />
<path d="M14531 7210
L14721 7210
" />
<path d="M14602 7043
L14602 7472
L14626 7519
L14674 7543
L14721 7543
" />
<path d="M14959 7543
L14912 7519
L14888 7495
L14864 7448
L14864 7305
L14888 7257
L14912 7233
L14959 7210
L15031 7210
L15078 7233
L15102 7257
L15126 7305
L15126 7448
L15102 7495
L15078 7519
L15031 7543
L14959 7543
" />
<path d="M15340 7543
L15340 7210
" />
<path d="M15340 7305
L15364 7257
L15388 7233
L15435 7210
L15483 7210
" />
</g></g>
<g style="fill:#725600; fill-opacity:0.0; 
stroke:#725600; stroke-width:60.000000; stroke-opacity:1; 
stroke-linecap:round; stroke-linejoin:round;">
<text x="14281.259843" y="21382.637795"
textLength="11560.000000" font-size="666.653543" lengthAdjust="spacingAndGlyphs"
text-anchor="middle" opacity="0">파일: TMS570_Connector.kicad_sch</text>
<g class="stroked-text"><desc>파일: TMS570_Connector.kicad_sch</desc>
<path d="M8650 21311
L8674 21335
L8650 21358
L8626 21335
L8650 21311
L8650 21358
" />
<path d="M8650 21049
L8674 21073
L8650 21096
L8626 21073
L8650 21049
L8650 21096
" />
<path d="M9197 20858
L9483 20858
" />
<path d="M9340 21358
L9340 20858
" />
<path d="M9650 21358
L9650 20858
L9816 21215
L9983 20858
L9983 21358
" />
<path d="M10197 21335
L10269 21358
L10388 21358
L10435 21335
L10459 21311
L10483 21263
L10483 21215
L10459 21168
L10435 21144
L10388 21120
L10293 21096
L10245 21073
L10221 21049
L10197 21001
L10197 20954
L10221 20906
L10245 20882
L10293 20858
L10412 20858
L10483 20882
" />
<path d="M10935 20858
L10697 20858
L10674 21096
L10697 21073
L10745 21049
L10864 21049
L10912 21073
L10935 21096
L10959 21144
L10959 21263
L10935 21311
L10912 21335
L10864 21358
L10745 21358
L10697 21335
L10674 21311
" />
<path d="M11126 20858
L11459 20858
L11245 21358
" />
<path d="M11745 20858
L11793 20858
L11840 20882
L11864 20906
L11888 20954
L11912 21049
L11912 21168
L11888 21263
L11864 21311
L11840 21335
L11793 21358
L11745 21358
L11697 21335
L11674 21311
L11650 21263
L11626 21168
L11626 21049
L11650 20954
L11674 20906
L11697 20882
L11745 20858
" />
<path d="M12007 21406
L12388 21406
" />
<path d="M12793 21311
L12769 21335
L12697 21358
L12650 21358
L12578 21335
L12531 21287
L12507 21239
L12483 21144
L12483 21073
L12507 20977
L12531 20930
L12578 20882
L12650 20858
L12697 20858
L12769 20882
L12793 20906
" />
<path d="M13078 21358
L13031 21335
L13007 21311
L12983 21263
L12983 21120
L13007 21073
L13031 21049
L13078 21025
L13150 21025
L13197 21049
L13221 21073
L13245 21120
L13245 21263
L13221 21311
L13197 21335
L13150 21358
L13078 21358
" />
<path d="M13459 21025
L13459 21358
" />
<path d="M13459 21073
L13483 21049
L13531 21025
L13602 21025
L13650 21049
L13674 21096
L13674 21358
" />
<path d="M13912 21025
L13912 21358
" />
<path d="M13912 21073
L13935 21049
L13983 21025
L14055 21025
L14102 21049
L14126 21096
L14126 21358
" />
<path d="M14555 21335
L14507 21358
L14412 21358
L14364 21335
L14340 21287
L14340 21096
L14364 21049
L14412 21025
L14507 21025
L14555 21049
L14578 21096
L14578 21144
L14340 21192
" />
<path d="M15007 21335
L14959 21358
L14864 21358
L14816 21335
L14793 21311
L14769 21263
L14769 21120
L14793 21073
L14816 21049
L14864 21025
L14959 21025
L15007 21049
" />
<path d="M15150 21025
L15340 21025
" />
<path d="M15221 20858
L15221 21287
L15245 21335
L15293 21358
L15340 21358
" />
<path d="M15578 21358
L15531 21335
L15507 21311
L15483 21263
L15483 21120
L15507 21073
L15531 21049
L15578 21025
L15650 21025
L15697 21049
L15721 21073
L15745 21120
L15745 21263
L15721 21311
L15697 21335
L15650 21358
L15578 21358
" />
<path d="M15959 21358
L15959 21025
" />
<path d="M15959 21120
L15983 21073
L16007 21049
L16055 21025
L16102 21025
" />
<path d="M16269 21311
L16293 21335
L16269 21358
L16245 21335
L16269 21311
L16269 21358
" />
<path d="M16507 21358
L16507 20858
" />
<path d="M16555 21168
L16697 21358
" />
<path d="M16697 21025
L16507 21215
" />
<path d="M16912 21358
L16912 21025
" />
<path d="M16912 20858
L16888 20882
L16912 20906
L16935 20882
L16912 20858
L16912 20906
" />
<path d="M17364 21335
L17316 21358
L17221 21358
L17174 21335
L17150 21311
L17126 21263
L17126 21120
L17150 21073
L17174 21049
L17221 21025
L17316 21025
L17364 21049
" />
<path d="M17793 21358
L17793 21096
L17769 21049
L17721 21025
L17626 21025
L17578 21049
" />
<path d="M17793 21335
L17745 21358
L17626 21358
L17578 21335
L17555 21287
L17555 21239
L17578 21192
L17626 21168
L17745 21168
L17793 21144
" />
<path d="M18245 21358
L18245 20858
" />
<path d="M18245 21335
L18197 21358
L18102 21358
L18055 21335
L18031 21311
L18007 21263
L18007 21120
L18031 21073
L18055 21049
L18102 21025
L18197 21025
L18245 21049
" />
<path d="M18364 21406
L18745 21406
" />
<path d="M18840 21335
L18888 21358
L18983 21358
L19031 21335
L19055 21287
L19055 21263
L19031 21215
L18983 21192
L18912 21192
L18864 21168
L18840 21120
L18840 21096
L18864 21049
L18912 21025
L18983 21025
L19031 21049
" />
<path d="M19483 21335
L19435 21358
L19340 21358
L19293 21335
L19269 21311
L19245 21263
L19245 21120
L19269 21073
L19293 21049
L19340 21025
L19435 21025
L19483 21049
" />
<path d="M19697 21358
L19697 20858
" />
<path d="M19912 21358
L19912 21096
L19888 21049
L19840 21025
L19769 21025
L19721 21049
L19697 21073
" />
</g></g>
<g style="fill:#FFFFFF; fill-opacity:0.0; 
stroke:#FFFFFF; stroke-width:60.000000; stroke-opacity:1; 
stroke-linecap:round; stroke-linejoin:round;">
</g>
<g style="fill:#FFFFFF; fill-opacity:1.0; 
stroke:#FFFFFF; stroke-width:0.039370; stroke-opacity:1; 
stroke-linecap:round; stroke-linejoin:round;">
<rect x="36500.000000" y="8000.000000" width="19000.000000" height="12500.000000" rx="0.000000" />
</g>
<g style="fill:#840000; fill-opacity:1.0; 
stroke:#840000; stroke-width:0.039370; stroke-opacity:1; 
stroke-linecap:round; stroke-linejoin:round;">
</g>
<g style="fill:#840000; fill-opacity:0.0; 
stroke:#840000; stroke-width:60.000000; stroke-opacity:1; 
stroke-linecap:round; stroke-linejoin:round;">
<rect x="36500.000000" y="8000.000000" width="19000.000000" height="12500.000000" rx="0.000000" />
</g>
<g style="fill:#006464; fill-opacity:0.0; 
stroke:#006464; stroke-width:60.000000; stroke-opacity:1; 
stroke-linecap:round; stroke-linejoin:round;">
<text x="38626.496063" y="7567.322835"
textLength="4250.472441" font-size="666.653543" lengthAdjust="spacingAndGlyphs"
text-anchor="middle" opacity="0">Valve_Drive</text>
<g class="stroked-text"><desc>Valve_Drive</desc>
<path d="M36578 7043
L36745 7543
L36912 7043
" />
<path d="M37293 7543
L37293 7281
L37269 7233
L37221 7210
L37126 7210
L37078 7233
" />
<path d="M37293 7519
L37245 7543
L37126 7543
L37078 7519
L37055 7472
L37055 7424
L37078 7376
L37126 7353
L37245 7353
L37293 7329
" />
<path d="M37602 7543
L37555 7519
L37531 7472
L37531 7043
" />
<path d="M37745 7210
L37864 7543
L37983 7210
" />
<path d="M38364 7519
L38316 7543
L38221 7543
L38174 7519
L38150 7472
L38150 7281
L38174 7233
L38221 7210
L38316 7210
L38364 7233
L38388 7281
L38388 7329
L38150 7376
" />
<path d="M38483 7591
L38864 7591
" />
<path d="M38983 7543
L38983 7043
L39102 7043
L39174 7067
L39221 7114
L39245 7162
L39269 7257
L39269 7329
L39245 7424
L39221 7472
L39174 7519
L39102 7543
L38983 7543
" />
<path d="M39483 7543
L39483 7210
" />
<path d="M39483 7305
L39507 7257
L39531 7233
L39578 7210
L39626 7210
" />
<path d="M39793 7543
L39793 7210
" />
<path d="M39793 7043
L39769 7067
L39793 7091
L39816 7067
L39793 7043
L39793 7091
" />
<path d="M39983 7210
L40102 7543
L40221 7210
" />
<path d="M40602 7519
L40555 7543
L40459 7543
L40412 7519
L40388 7472
L40388 7281
L40412 7233
L40459 7210
L40555 7210
L40602 7233
L40626 7281
L40626 7329
L40388 7376
" />
</g></g>
<g style="fill:#725600; fill-opacity:0.0; 
stroke:#725600; stroke-width:60.000000; stroke-opacity:1; 
stroke-linecap:round; stroke-linejoin:round;">
<text x="40876.496063" y="21382.637795"
textLength="8750.472441" font-size="666.653543" lengthAdjust="spacingAndGlyphs"
text-anchor="middle" opacity="0">파일: Valve_Drive.kicad_sch</text>
<g class="stroked-text"><desc>파일: Valve_Drive.kicad_sch</desc>
<path d="M36650 21311
L36674 21335
L36650 21358
L36626 21335
L36650 21311
L36650 21358
" />
<path d="M36650 21049
L36674 21073
L36650 21096
L36626 21073
L36650 21049
L36650 21096
" />
<path d="M37197 20858
L37364 21358
L37531 20858
" />
<path d="M37912 21358
L37912 21096
L37888 21049
L37840 21025
L37745 21025
L37697 21049
" />
<path d="M37912 21335
L37864 21358
L37745 21358
L37697 21335
L37674 21287
L37674 21239
L37697 21192
L37745 21168
L37864 21168
L37912 21144
" />
<path d="M38221 21358
L38174 21335
L38150 21287
L38150 20858
" />
<path d="M38364 21025
L38483 21358
L38602 21025
" />
<path d="M38983 21335
L38935 21358
L38840 21358
L38793 21335
L38769 21287
L38769 21096
L38793 21049
L38840 21025
L38935 21025
L38983 21049
L39007 21096
L39007 21144
L38769 21192
" />
<path d="M39102 21406
L39483 21406
" />
<path d="M39602 21358
L39602 20858
L39721 20858
L39793 20882
L39840 20930
L39864 20977
L39888 21073
L39888 21144
L39864 21239
L39840 21287
L39793 21335
L39721 21358
L39602 21358
" />
<path d="M40102 21358
L40102 21025
" />
<path d="M40102 21120
L40126 21073
L40150 21049
L40197 21025
L40245 21025
" />
<path d="M40412 21358
L40412 21025
" />
<path d="M40412 20858
L40388 20882
L40412 20906
L40435 20882
L40412 20858
L40412 20906
" />
<path d="M40602 21025
L40721 21358
L40840 21025
" />
<path d="M41221 21335
L41174 21358
L41078 21358
L41031 21335
L41007 21287
L41007 21096
L41031 21049
L41078 21025
L41174 21025
L41221 21049
L41245 21096
L41245 21144
L41007 21192
" />
<path d="M41459 21311
L41483 21335
L41459 21358
L41435 21335
L41459 21311
L41459 21358
" />
<path d="M41697 21358
L41697 20858
" />
<path d="M41745 21168
L41888 21358
" />
<path d="M41888 21025
L41697 21215
" />
<path d="M42102 21358
L42102 21025
" />
<path d="M42102 20858
L42078 20882
L42102 20906
L42126 20882
L42102 20858
L42102 20906
" />
<path d="M42555 21335
L42507 21358
L42412 21358
L42364 21335
L42340 21311
L42316 21263
L42316 21120
L42340 21073
L42364 21049
L42412 21025
L42507 21025
L42555 21049
" />
<path d="M42983 21358
L42983 21096
L42959 21049
L42912 21025
L42816 21025
L42769 21049
" />
<path d="M42983 21335
L42935 21358
L42816 21358
L42769 21335
L42745 21287
L42745 21239
L42769 21192
L42816 21168
L42935 21168
L42983 21144
" />
<path d="M43435 21358
L43435 20858
" />
<path d="M43435 21335
L43388 21358
L43293 21358
L43245 21335
L43221 21311
L43197 21263
L43197 21120
L43221 21073
L43245 21049
L43293 21025
L43388 21025
L43435 21049
" />
<path d="M43555 21406
L43935 21406
" />
<path d="M44031 21335
L44078 21358
L44174 21358
L44221 21335
L44245 21287
L44245 21263
L44221 21215
L44174 21192
L44102 21192
L44055 21168
L44031 21120
L44031 21096
L44055 21049
L44102 21025
L44174 21025
L44221 21049
" />
<path d="M44674 21335
L44626 21358
L44531 21358
L44483 21335
L44459 21311
L44435 21263
L44435 21120
L44459 21073
L44483 21049
L44531 21025
L44626 21025
L44674 21049
" />
<path d="M44888 21358
L44888 20858
" />
<path d="M45102 21358
L45102 21096
L45078 21049
L45031 21025
L44959 21025
L44912 21049
L44888 21073
" />
</g><g >
</g>
<g style="fill:#840000; fill-opacity:0.0; 
stroke:#840000; stroke-width:60.000000; stroke-opacity:1; 
stroke-linecap:round; stroke-linejoin:round;">
<path style="fill:#840000; fill-opacity:0.0; 
stroke:#840000; stroke-width:60.000000; stroke-opacity:1; 
stroke-linecap:round; stroke-linejoin:round;fill:none"
d="M 19000.000000,67500.000000
19000.000000,68000.000000
19400.000000,68250.000000
19000.000000,68500.000000
18600.000000,68250.000000
19000.000000,68000.000000
" /> 
<path d="M19000 67500
L19000 67500
" />
</g>
<g style="fill:#006464; fill-opacity:0.0; 
stroke:#006464; stroke-width:60.000000; stroke-opacity:1; 
stroke-linecap:round; stroke-linejoin:round;">
<text x="18999.960630" y="69750.000000"
textLength="3774.291339" font-size="666.653543" lengthAdjust="spacingAndGlyphs"
text-anchor="middle" opacity="0">PWR_FLAG</text>
<g class="stroked-text"><desc>PWR_FLAG</desc>
<path d="M17261 69726
L17261 69226
L17452 69226
L17499 69250
L17523 69273
L17547 69321
L17547 69392
L17523 69440
L17499 69464
L17452 69488
L17261 69488
" />
<path d="M17714 69226
L17833 69726
L17928 69369
L18023 69726
L18142 69226
" />
<path d="M18618 69726
L18452 69488
" />
<path d="M18333 69726
L18333 69226
L18523 69226
L18571 69250
L18595 69273
L18618 69321
L18618 69392
L18595 69440
L18571 69464
L18523 69488
L18333 69488
" />
<path d="M18714 69773
L19095 69773
" />
<path d="M19380 69464
L19214 69464
" />
<path d="M19214 69726
L19214 69226
L19452 69226
" />
<path d="M19880 69726
L19642 69726
L19642 69226
" />
<path d="M20023 69583
L20261 69583
" />
<path d="M19976 69726
L20142 69226
L20309 69726
" />
<path d="M20738 69250
L20690 69226
L20618 69226
L20547 69250
L20499 69297
L20476 69345
L20452 69440
L20452 69511
L20476 69607
L20499 69654
L20547 69702
L20618 69726
L20666 69726
L20738 69702
L20761 69678
L20761 69511
L20666 69511
" />
</g></g>
</g>
<g style="fill:#006464; fill-opacity:0.0; 
stroke:#006464; stroke-width:60.000000; stroke-opacity:1; 
stroke-linecap:round; stroke-linejoin:round;">
<g >
</g>
<g style="fill:#840000; fill-opacity:0.0; 
stroke:#840000; stroke-width:60.000000; stroke-opacity:1; 
stroke-linecap:round; stroke-linejoin:round;">
</g>
<g style="fill:#840000; fill-opacity:1.0; 
stroke:#840000; stroke-width:100.000000; stroke-opacity:1; 
stroke-linecap:round; stroke-linejoin:round;">
<rect x="27500.000000" y="68600.000000" width="1000.000000" height="200.000000" rx="0.000000" />
</g>
<g style="fill:#840000; fill-opacity:0.0; 
stroke:#840000; stroke-width:60.000000; stroke-opacity:1; 
stroke-linecap:round; stroke-linejoin:round;">
<path style="fill:#840000; fill-opacity:0.0; 
stroke:#840000; stroke-width:60.000000; stroke-opacity:1; 
stroke-linecap:round; stroke-linejoin:round;fill:none"
d="M 28000.000000,68000.000000
28000.000000,68600.000000
" /> 
</g>
<g style="fill:#006464; fill-opacity:0.0; 
stroke:#006464; stroke-width:60.000000; stroke-opacity:1; 
stroke-linecap:round; stroke-linejoin:round;">
<text x="28000.000000" y="69749.960630"
textLength="2083.818898" font-size="666.653543" lengthAdjust="spacingAndGlyphs"
text-anchor="middle" opacity="0">GNDD</text>
<g class="stroked-text"><desc>GNDD</desc>
<path d="M27369 69249
L27321 69226
L27250 69226
L27178 69249
L27130 69297
L27107 69345
L27083 69440
L27083 69511
L27107 69607
L27130 69654
L27178 69702
L27250 69726
L27297 69726
L27369 69702
L27392 69678
L27392 69511
L27297 69511
" />
<path d="M27607 69726
L27607 69226
L27892 69726
L27892 69226
" />
<path d="M28130 69726
L28130 69226
L28250 69226
L28321 69249
L28369 69297
L28392 69345
L28416 69440
L28416 69511
L28392 69607
L28369 69654
L28321 69702
L28250 69726
L28130 69726
" />
<path d="M28630 69726
L28630 69226
L28750 69226
L28821 69249
L28869 69297
L28892 69345
L28916 69440
L28916 69511
L28892 69607
L28869 69654
L28821 69702
L28750 69726
L28630 69726
" />
</g></g>
</g>
<g style="fill:#006464; fill-opacity:0.0; 
stroke:#006464; stroke-width:60.000000; stroke-opacity:1; 
stroke-linecap:round; stroke-linejoin:round;">
<g >
</g>
<g style="fill:#840000; fill-opacity:0.0; 
stroke:#840000; stroke-width:60.000000; stroke-opacity:1; 
stroke-linecap:round; stroke-linejoin:round;">
<path style="fill:#840000; fill-opacity:0.0; 
stroke:#840000; stroke-width:60.000000; stroke-opacity:1; 
stroke-linecap:round; stroke-linejoin:round;fill:none"
d="M 33000.000000,68000.000000
33000.000000,68500.000000
33500.000000,68500.000000
33000.000000,69000.000000
32500.000000,68500.000000
33000.000000,68500.000000
" /> 
</g>
<g style="fill:#006464; fill-opacity:0.0; 
stroke:#006464; stroke-width:60.000000; stroke-opacity:1; 
stroke-linecap:round; stroke-linejoin:round;">
<text x="33000.000000" y="69749.960630"
textLength="2012.362205" font-size="666.653543" lengthAdjust="spacingAndGlyphs"
text-anchor="middle" opacity="0">GNDA</text>
<g class="stroked-text"><desc>GNDA</desc>
<path d="M32404 69249
L32357 69226
L32285 69226
L32214 69249
L32166 69297
L32142 69345
L32119 69440
L32119 69511
L32142 69607
L32166 69654
L32214 69702
L32285 69726
L32333 69726
L32404 69702
L32428 69678
L32428 69511
L32333 69511
" />
<path d="M32642 69726
L32642 69226
L32928 69726
L32928 69226
" />
<path d="M33166 69726
L33166 69226
L33285 69226
L33357 69249
L33404 69297
L33428 69345
L33452 69440
L33452 69511
L33428 69607
L33404 69654
L33357 69702
L33285 69726
L33166 69726
" />
<path d="M33642 69583
L33880 69583
" />
<path d="M33595 69726
L33761 69226
L33928 69726
" />
</g></g>
</g>
<g style="fill:#006464; fill-opacity:0.0; 
stroke:#006464; stroke-width:60.000000; stroke-opacity:1; 
stroke-linecap:round; stroke-linejoin:round;">
<g >
</g>
<g style="fill:#840000; fill-opacity:0.0; 
stroke:#840000; stroke-width:60.000000; stroke-opacity:1; 
stroke-linecap:round; stroke-linejoin:round;">
<path style="fill:#840000; fill-opacity:0.0; 
stroke:#840000; stroke-width:60.000000; stroke-opacity:1; 
stroke-linecap:round; stroke-linejoin:round;fill:none"
d="M 23500.000000,67500.000000
23500.000000,68000.000000
23900.000000,68250.000000
23500.000000,68500.000000
23100.000000,68250.000000
23500.000000,68000.000000
" /> 
<path d="M23500 67500
L23500 67500
" />
</g>
<g style="fill:#006464; fill-opacity:0.0; 
stroke:#006464; stroke-width:60.000000; stroke-opacity:1; 
stroke-linecap:round; stroke-linejoin:round;">
<text x="23499.960630" y="69750.000000"
textLength="3774.291339" font-size="666.653543" lengthAdjust="spacingAndGlyphs"
text-anchor="middle" opacity="0">PWR_FLAG</text>
<g class="stroked-text"><desc>PWR_FLAG</desc>
<path d="M21761 69726
L21761 69226
L21952 69226
L21999 69250
L22023 69273
L22047 69321
L22047 69392
L22023 69440
L21999 69464
L21952 69488
L21761 69488
" />
<path d="M22214 69226
L22333 69726
L22428 69369
L22523 69726
L22642 69226
" />
<path d="M23118 69726
L22952 69488
" />
<path d="M22833 69726
L22833 69226
L23023 69226
L23071 69250
L23095 69273
L23118 69321
L23118 69392
L23095 69440
L23071 69464
L23023 69488
L22833 69488
" />
<path d="M23214 69773
L23595 69773
" />
<path d="M23880 69464
L23714 69464
" />
<path d="M23714 69726
L23714 69226
L23952 69226
" />
<path d="M24380 69726
L24142 69726
L24142 69226
" />
<path d="M24523 69583
L24761 69583
" />
<path d="M24476 69726
L24642 69226
L24809 69726
" />
<path d="M25238 69250
L25190 69226
L25118 69226
L25047 69250
L24999 69297
L24976 69345
L24952 69440
L24952 69511
L24976 69607
L24999 69654
L25047 69702
L25118 69726
L25166 69726
L25238 69702
L25261 69678
L25261 69511
L25166 69511
" />
</g></g>
</g>
<g style="fill:#006464; fill-opacity:0.0; 
stroke:#006464; stroke-width:60.000000; stroke-opacity:1; 
stroke-linecap:round; stroke-linejoin:round;">
<g >
</g>
<g style="fill:#840000; fill-opacity:0.0; 
stroke:#840000; stroke-width:60.000000; stroke-opacity:1; 
stroke-linecap:round; stroke-linejoin:round;">
<path style="fill:#840000; fill-opacity:0.0; 
stroke:#840000; stroke-width:60.000000; stroke-opacity:1; 
stroke-linecap:round; stroke-linejoin:round;fill:none"
d="M 14200.000000,64500.000000
14500.000000,64000.000000
" /> 
<path style="fill:#840000; fill-opacity:0.0; 
stroke:#840000; stroke-width:60.000000; stroke-opacity:1; 
stroke-linecap:round; stroke-linejoin:round;fill:none"
d="M 14500.000000,65000.000000
14500.000000,64000.000000
" /> 
<path style="fill:#840000; fill-opacity:0.0; 
stroke:#840000; stroke-width:60.000000; stroke-opacity:1; 
stroke-linecap:round; stroke-linejoin:round;fill:none"
d="M 14500.000000,64000.000000
14800.000000,64500.000000
" /> 
</g>
<g style="fill:#006464; fill-opacity:0.0; 
stroke:#006464; stroke-width:60.000000; stroke-opacity:1; 
stroke-linecap:round; stroke-linejoin:round;">
<text x="14500.000000" y="63249.960630"
textLength="2488.582677" font-size="666.653543" lengthAdjust="spacingAndGlyphs"
text-anchor="middle" opacity="0">+12VA</text>
<g class="stroked-text"><desc>+12VA</desc>
<path d="M13404 63035
L13785 63035
" />
<path d="M13595 63226
L13595 62845
" />
<path d="M14285 63226
L14000 63226
" />
<path d="M14142 63226
L14142 62726
L14095 62797
L14047 62845
L14000 62868
" />
<path d="M14476 62773
L14500 62749
L14547 62726
L14666 62726
L14714 62749
L14738 62773
L14761 62821
L14761 62868
L14738 62940
L14452 63226
L14761 63226
" />
<path d="M14904 62726
L15071 63226
L15238 62726
" />
<path d="M15380 63083
L15619 63083
" />
<path d="M15333 63226
L15500 62726
L15666 63226
" />
</g></g>
</g>
<g style="fill:#006464; fill-opacity:0.0; 
stroke:#006464; stroke-width:60.000000; stroke-opacity:1; 
stroke-linecap:round; stroke-linejoin:round;">
<g >
</g>
<g style="fill:#840000; fill-opacity:0.0; 
stroke:#840000; stroke-width:60.000000; stroke-opacity:1; 
stroke-linecap:round; stroke-linejoin:round;">
<path style="fill:#840000; fill-opacity:0.0; 
stroke:#840000; stroke-width:60.000000; stroke-opacity:1; 
stroke-linecap:round; stroke-linejoin:round;fill:none"
d="M 28000.000000,64500.000000
28000.000000,64000.000000
27600.000000,63750.000000
28000.000000,63500.000000
28400.000000,63750.000000
28000.000000,64000.000000
" /> 
<path d="M28000 64500
L28000 64500
" />
</g>
<g style="fill:#006464; fill-opacity:0.0; 
stroke:#006464; stroke-width:60.000000; stroke-opacity:1; 
stroke-linecap:round; stroke-linejoin:round;">
<text x="28388.385827" y="63249.960630"
textLength="3774.291339" font-size="666.653543" lengthAdjust="spacingAndGlyphs"
text-anchor="middle" opacity="0">PWR_FLAG</text>
<g class="stroked-text"><desc>PWR_FLAG</desc>
<path d="M26650 63226
L26650 62726
L26840 62726
L26888 62749
L26912 62773
L26935 62821
L26935 62892
L26912 62940
L26888 62964
L26840 62988
L26650 62988
" />
<path d="M27102 62726
L27221 63226
L27316 62868
L27412 63226
L27531 62726
" />
<path d="M28007 63226
L27840 62988
" />
<path d="M27721 63226
L27721 62726
L27912 62726
L27959 62749
L27983 62773
L28007 62821
L28007 62892
L27983 62940
L27959 62964
L27912 62988
L27721 62988
" />
<path d="M28102 63273
L28483 63273
" />
<path d="M28769 62964
L28602 62964
" />
<path d="M28602 63226
L28602 62726
L28840 62726
" />
<path d="M29269 63226
L29031 63226
L29031 62726
" />
<path d="M29412 63083
L29650 63083
" />
<path d="M29364 63226
L29531 62726
L29697 63226
" />
<path d="M30126 62749
L30078 62726
L30007 62726
L29935 62749
L29888 62797
L29864 62845
L29840 62940
L29840 63011
L29864 63107
L29888 63154
L29935 63202
L30007 63226
L30055 63226
L30126 63202
L30150 63178
L30150 63011
L30055 63011
" />
</g></g>
</g>
<g style="fill:#006464; fill-opacity:0.0; 
stroke:#006464; stroke-width:60.000000; stroke-opacity:1; 
stroke-linecap:round; stroke-linejoin:round;">
<g >
</g>
<g style="fill:#840000; fill-opacity:0.0; 
stroke:#840000; stroke-width:60.000000; stroke-opacity:1; 
stroke-linecap:round; stroke-linejoin:round;">
<path style="fill:#840000; fill-opacity:0.0; 
stroke:#840000; stroke-width:60.000000; stroke-opacity:1; 
stroke-linecap:round; stroke-linejoin:round;fill:none"
d="M 18700.000000,64500.000000
19000.000000,64000.000000
" /> 
<path style="fill:#840000; fill-opacity:0.0; 
stroke:#840000; stroke-width:60.000000; stroke-opacity:1; 
stroke-linecap:round; stroke-linejoin:round;fill:none"
d="M 19000.000000,65000.000000
19000.000000,64000.000000
" /> 
<path style="fill:#840000; fill-opacity:0.0; 
stroke:#840000; stroke-width:60.000000; stroke-opacity:1; 
stroke-linecap:round; stroke-linejoin:round;fill:none"
d="M 19000.000000,64000.000000
19300.000000,64500.000000
" /> 
</g>
<g style="fill:#006464; fill-opacity:0.0; 
stroke:#006464; stroke-width:60.000000; stroke-opacity:1; 
stroke-linecap:round; stroke-linejoin:round;">
<text x="19000.000000" y="63249.960630"
textLength="2060.000000" font-size="666.653543" lengthAdjust="spacingAndGlyphs"
text-anchor="middle" opacity="0">+3V3</text>
<g class="stroked-text"><desc>+3V3</desc>
<path d="M18119 63035
L18500 63035
" />
<path d="M18309 63226
L18309 62845
" />
<path d="M18690 62726
L19000 62726
L18833 62916
L18904 62916
L18952 62940
L18976 62964
L19000 63011
L19000 63130
L18976 63178
L18952 63202
L18904 63226
L18761 63226
L18714 63202
L18690 63178
" />
<path d="M19142 62726
L19309 63226
L19476 62726
" />
<path d="M19595 62726
L19904 62726
L19738 62916
L19809 62916
L19857 62940
L19880 62964
L19904 63011
L19904 63130
L19880 63178
L19857 63202
L19809 63226
L19666 63226
L19619 63202
L19595 63178
" />
</g></g>
</g>
<g style="fill:#006464; fill-opacity:0.0; 
stroke:#006464; stroke-width:60.000000; stroke-opacity:1; 
stroke-linecap:round; stroke-linejoin:round;">
<g >
</g>
<g style="fill:#840000; fill-opacity:0.0; 
stroke:#840000; stroke-width:60.000000; stroke-opacity:1; 
stroke-linecap:round; stroke-linejoin:round;">
<path style="fill:#840000; fill-opacity:0.0; 
stroke:#840000; stroke-width:60.000000; stroke-opacity:1; 
stroke-linecap:round; stroke-linejoin:round;fill:none"
d="M 33000.000000,64500.000000
33000.000000,64000.000000
32600.000000,63750.000000
33000.000000,63500.000000
33400.000000,63750.000000
33000.000000,64000.000000
" /> 
<path d="M33000 64500
L33000 64500
" />
</g>
<g style="fill:#006464; fill-opacity:0.0; 
stroke:#006464; stroke-width:60.000000; stroke-opacity:1; 
stroke-linecap:round; stroke-linejoin:round;">
<text x="33388.385827" y="63249.960630"
textLength="3774.291339" font-size="666.653543" lengthAdjust="spacingAndGlyphs"
text-anchor="middle" opacity="0">PWR_FLAG</text>
<g class="stroked-text"><desc>PWR_FLAG</desc>
<path d="M31650 63226
L31650 62726
L31840 62726
L31888 62749
L31912 62773
L31935 62821
L31935 62892
L31912 62940
L31888 62964
L31840 62988
L31650 62988
" />
<path d="M32102 62726
L32221 63226
L32316 62868
L32412 63226
L32531 62726
" />
<path d="M33007 63226
L32840 62988
" />
<path d="M32721 63226
L32721 62726
L32912 62726
L32959 62749
L32983 62773
L33007 62821
L33007 62892
L32983 62940
L32959 62964
L32912 62988
L32721 62988
" />
<path d="M33102 63273
L33483 63273
" />
<path d="M33769 62964
L33602 62964
" />
<path d="M33602 63226
L33602 62726
L33840 62726
" />
<path d="M34269 63226
L34031 63226
L34031 62726
" />
<path d="M34412 63083
L34650 63083
" />
<path d="M34364 63226
L34531 62726
L34697 63226
" />
<path d="M35126 62749
L35078 62726
L35007 62726
L34935 62749
L34888 62797
L34864 62845
L34840 62940
L34840 63011
L34864 63107
L34888 63154
L34935 63202
L35007 63226
L35055 63226
L35126 63202
L35150 63178
L35150 63011
L35055 63011
" />
</g></g>
</g>
<g style="fill:#006464; fill-opacity:0.0; 
stroke:#006464; stroke-width:60.000000; stroke-opacity:1; 
stroke-linecap:round; stroke-linejoin:round;">
<g >
</g>
<g style="fill:#840000; fill-opacity:0.0; 
stroke:#840000; stroke-width:60.000000; stroke-opacity:1; 
stroke-linecap:round; stroke-linejoin:round;">
<path style="fill:#840000; fill-opacity:0.0; 
stroke:#840000; stroke-width:60.000000; stroke-opacity:1; 
stroke-linecap:round; stroke-linejoin:round;fill:none"
d="M 23200.000000,64500.000000
23500.000000,64000.000000
" /> 
<path style="fill:#840000; fill-opacity:0.0; 
stroke:#840000; stroke-width:60.000000; stroke-opacity:1; 
stroke-linecap:round; stroke-linejoin:round;fill:none"
d="M 23500.000000,65000.000000
23500.000000,64000.000000
" /> 
<path style="fill:#840000; fill-opacity:0.0; 
stroke:#840000; stroke-width:60.000000; stroke-opacity:1; 
stroke-linecap:round; stroke-linejoin:round;fill:none"
d="M 23500.000000,64000.000000
23800.000000,64500.000000
" /> 
</g>
<g style="fill:#006464; fill-opacity:0.0; 
stroke:#006464; stroke-width:60.000000; stroke-opacity:1; 
stroke-linecap:round; stroke-linejoin:round;">
<text x="23500.000000" y="63249.960630"
textLength="2012.362205" font-size="666.653543" lengthAdjust="spacingAndGlyphs"
text-anchor="middle" opacity="0">+5VA</text>
<g class="stroked-text"><desc>+5VA</desc>
<path d="M22642 63035
L23023 63035
" />
<path d="M22833 63226
L22833 62845
" />
<path d="M23500 62726
L23261 62726
L23238 62964
L23261 62940
L23309 62916
L23428 62916
L23476 62940
L23500 62964
L23523 63011
L23523 63130
L23500 63178
L23476 63202
L23428 63226
L23309 63226
L23261 63202
L23238 63178
" />
<path d="M23666 62726
L23833 63226
L24000 62726
" />
<path d="M24142 63083
L24380 63083
" />
<path d="M24095 63226
L24261 62726
L24428 63226
" />
</g></g>
</g>
<g style="fill:#006464; fill-opacity:0.0; 
stroke:#006464; stroke-width:60.000000; stroke-opacity:1; 
stroke-linecap:round; stroke-linejoin:round;">
<g >
</g>
<g style="fill:#840000; fill-opacity:0.0; 
stroke:#840000; stroke-width:60.000000; stroke-opacity:1; 
stroke-linecap:round; stroke-linejoin:round;">
<path style="fill:#840000; fill-opacity:0.0; 
stroke:#840000; stroke-width:60.000000; stroke-opacity:1; 
stroke-linecap:round; stroke-linejoin:round;fill:none"
d="M 14500.000000,67500.000000
14500.000000,68000.000000
14900.000000,68250.000000
14500.000000,68500.000000
14100.000000,68250.000000
14500.000000,68000.000000
" /> 
<path d="M14500 67500
L14500 67500
" />
</g>
<g style="fill:#006464; fill-opacity:0.0; 
stroke:#006464; stroke-width:60.000000; stroke-opacity:1; 
stroke-linecap:round; stroke-linejoin:round;">
<text x="14499.960630" y="69750.000000"
textLength="3774.291339" font-size="666.653543" lengthAdjust="spacingAndGlyphs"
text-anchor="middle" opacity="0">PWR_FLAG</text>
<g class="stroked-text"><desc>PWR_FLAG</desc>
<path d="M12761 69726
L12761 69226
L12952 69226
L12999 69250
L13023 69273
L13047 69321
L13047 69392
L13023 69440
L12999 69464
L12952 69488
L12761 69488
" />
<path d="M13214 69226
L13333 69726
L13428 69369
L13523 69726
L13642 69226
" />
<path d="M14118 69726
L13952 69488
" />
<path d="M13833 69726
L13833 69226
L14023 69226
L14071 69250
L14095 69273
L14118 69321
L14118 69392
L14095 69440
L14071 69464
L14023 69488
L13833 69488
" />
<path d="M14214 69773
L14595 69773
" />
<path d="M14880 69464
L14714 69464
" />
<path d="M14714 69726
L14714 69226
L14952 69226
" />
<path d="M15380 69726
L15142 69726
L15142 69226
" />
<path d="M15523 69583
L15761 69583
" />
<path d="M15476 69726
L15642 69226
L15809 69726
" />
<path d="M16238 69250
L16190 69226
L16118 69226
L16047 69250
L15999 69297
L15976 69345
L15952 69440
L15952 69511
L15976 69607
L15999 69654
L16047 69702
L16118 69726
L16166 69726
L16238 69702
L16261 69678
L16261 69511
L16166 69511
" />
</g></g>
</g>
<g style="fill:#006464; fill-opacity:0.0; 
stroke:#006464; stroke-width:60.000000; stroke-opacity:1; 
stroke-linecap:round; stroke-linejoin:round;">
</g>
<g style="fill:#009600; fill-opacity:0.0; 
stroke:#009600; stroke-width:60.000000; stroke-opacity:1; 
stroke-linecap:round; stroke-linejoin:round;">
<path d="M23500 65000
L23500 67500
" />
<path d="M14500 65000
L14500 67500
" />
<path d="M19000 65000
L19000 67500
" />
<path d="M28000 64500
L28000 68000
" />
<path d="M33000 64500
L33000 68000
" />
</g> 
</svg>
